<mxfile host="app.diagrams.net" modified="2022-12-05T14:44:43.014Z" agent="5.0 (X11; Linux x86_64) AppleWebKit/537.36 (KHTML, like Gecko) Chrome/107.0.0.0 Safari/537.36" version="20.6.0" etag="nKIG_S7vQBQ-ifOzu660" type="github">
  <diagram id="HrN4AS1YKRtcnQDSJFPq" name="Page-1">
    <mxGraphModel dx="1343" dy="777" grid="1" gridSize="10" guides="1" tooltips="1" connect="1" arrows="1" fold="1" page="1" pageScale="1" pageWidth="827" pageHeight="1169" math="0" shadow="0">
      <root>
        <mxCell id="0" />
        <mxCell id="1" parent="0" />
        <mxCell id="4u7W2L5MvZnfVgIXWP3j-39" style="edgeStyle=orthogonalEdgeStyle;rounded=0;orthogonalLoop=1;jettySize=auto;html=1;fillColor=#cce5ff;strokeColor=#36393d;" edge="1" parent="1" source="4u7W2L5MvZnfVgIXWP3j-3">
          <mxGeometry relative="1" as="geometry">
            <mxPoint x="123" y="600" as="targetPoint" />
          </mxGeometry>
        </mxCell>
        <mxCell id="4u7W2L5MvZnfVgIXWP3j-3" value="" style="shape=image;imageAspect=0;aspect=fixed;verticalLabelPosition=bottom;verticalAlign=top;image=data:image/webp,UklGRpggAABXRUJQVlA4IIwgAADwswCdASrQAi8BPrVWpU4nJKeiI1ILGPAWiWlu/EsYAlMZD2H3HPzd/bv6n3Uf4nxJ8gvwDPZyx9empr8y+7v7n+yegn+4/xXib8N/9L1BfXXnqPfeTP337HewL7H/Yv2W8Zr/N/yPqf9mf1v+AD+g/2X/ketf/Z8G/71/r/YD/q/+H/93+M92j/B/bH0GfXn7XfAX+wXW59Gr9ryh+KFHZ+KFHZ+KFHZ+KFHZ+KFHZ+KFHZ+J0KYLoPANRjQtFbpWW12hKiFHZ8ZQiqLmG8umnBMLeqpHPUhDg0JUQo6Gyw9JzTzbFbuENzPWSUe8L59SBEAKoI/KmRPEtw0upUQo7PxQo7PxQiblN3uiEcnrunUfxnA3fa7VGgeZCj75+snYOV83K06miIqxLNzJlwFw+izbAdmC90AhRD6KeHX8/x0yqH8N7Kv4EgWx+n1z2HxxtOl71pFn3HK8u+eGRFVI5xSWUHMxsiT28r5Wo7QNjPxQynum47XSn9Zbj6Si3uXPlIYJSrutOJEs3e8lzAsaxRB12ow+dq4a7ZZuKBX544P2Wgd7D2UB5xdYqf5VSOeon79FWdpJ7lb/KGsoC8MaCMQxD5RiKNFcecQeU3BqBQk7H0Am8TYx+NA/8+sK64uGY95PuFQfVDNV0U+licW0/kZaNR5uCXt965pUQpbFYA9KT4HP1SEODMAnwi8DWW0ftVzhHI03JoVEj2QY8Gsl0dzXieH7CSjk+lnEWui7ISdl/HIIoH0Ntj9asHDcfQMaBmvyAB8jpcquBKuY9w3Kwrj95Io/a7QlOomWGQcmnJ8LM46vQWrqofci4A8bEkFKVyyopVsQI/NREQAdZJLmIgeTNgCuWEXQ8ow36irnBFZ2XO4OvuA856Em1giLQnUIMEqIZVb30xIBoSohEpq6PI1VE7P+zko8a9XKOa7pieqg3qb1TuvBnyifIhzJ2zmaQ8cVEKOz8UKOz8UKOhBkpbMMcG9xoEC2Q63Lx0mVmnGztA3BRdZvEyovWQSogrTm9gyYfg8nKcrhhFwHGB3jtEEkzVY/po8pNih7qRz1IQRfNOOz8UIjOXHRZpFMIaNHAvWiIaG9lvQN9gw5fqAdU/IudqPlRElDmZIrMqX0HEKjkmMzFPoTMCGZn1UssFTs9rBNt1m6RlpRVi8Ay7p2xYvcu0vTOyOuds0/3ZihQ1eKYT57puFVI56FIvxDubljpiM7Wvglc39H6eDnz4UsCD0ZLfUgCX7wRjDZGgfCWkQuZcFSB73NPMbI2mZP9xE0MGuw3KCrLGY5BGhKpm83ayX+7xUhDgzHf1RCmHs3TdjrP1LVYFavwvenvM2W8p8mByZRMWD0ykHCvcQnJmVb3R5/In2+OfrRoRBVnG+d5qnUA9w4ASFCK9AAc12qT/0DQ0vEHRtaEH972KHQILFPuEODLMFPKU5LfE5dwsKoXIOKXSPWiCg3hUSnfBJ47M87djo1HaNy1RCYhE3+n4ZFhN78SdcNVWDrHP6jvu7OnzrzUQhKiGIeNhe/Eut+89SEODLoXYlFk6f6z3l/HB4pbAK5FO/CKkIbO3Xcf9gGmdxNzdNud9qQLN7ad84jF/+VQWqG/kcjpc91V7NSqNqDabU2QEPnoQxJBILuBx5OM4Pvf9OwTCvC3SihTwm/+5CQ4jdVtiBpc51SPTNXVUiSKk5Q8wUAmw/gtbmY6dhm4EpoQIBxNXkjtpSXJQNTcs1bkkRSP9KONeUdCrUvod22oSVEKOy/4zj5VaPPBHRycJ8uX9GYJ5N+iXG6Ik9BbqVVrWvWp1QFHQxGSyq7f9TAlGokiHBodpicKc9SEOBsVRhtMBMOazH9dU3a5qQhwZieZJYWc68ZRYk2fihR2fihR2fihR2fihR2fihR2fihR2fihR2fihRzsVCCUWb+E/TVNgcZtj8AAAD++3QAAA6eln9CUZxjvB7CZDXTRdhp9NgLpATOP8QCDgCa3U5oM/BdieJGxWWAAgIvJa/hgHAFpHoFzL1YJlwaiphUmg6n0JYA0PMlP/e7H906Oc0Rgk3/7auk26WFj8V+6p8N5q9x8f4OQwRGk7CDsV4h1Or5suQd/xZZqncDC3YG5gh0GWIqB2XJ656M+Tj8y2CMIMYNqlZBC2oFXzXWSl6/SFFPGyMVS/C7fSzfgFvH9M2TdgyANxcLVGb9tjVm/TpxKQH8G0TzA6ghYcYa/52F1hhU1yUwJeWAst+A3jaUgjjo3KgIrC/yLbYHRDit8/gYfXPM44wY33VCMczwc/zByU19phIMLOEklIV18FV4x6JW/ROMWb7PRJLY9EZ1b82i0dma3vt5DXW/Z8Rt2i9ReN/z0nvdVsPCq2S1+21k4kx1m/6WpvLvj8+uq722HZBkeny+pXqi4F5dnNYyDXLtWXoglJwZA0CjqiDYFnDEGhf6MalXGVJK0EN7QlaXs3dCYmMEtCNBFAR7Z4k3UBwDa5oLohd8v+wt9lvlbP+qpaq+KHE8pG+0bl/9hNULiR8gw7Ha9rCG7xz4c+SCouVuNytkuaE15jOxtUAqUv4fNgt0M9i/uFI8P/uiJi9g/taH3CJntm8pnphZlb4jQqk+O/nrMuCDD4RAJH9Ahcn3Z/pbY1rhVCW8uJ/ZoXQ4vACWqRVvfdFNzxEsxFwSyQs54yn1nVtjjK/RP7WbNOrHq7m1ziKEVKx+NswMD2KB32D9v4e67gyY9db3rrNOj/uIZ19ldUQDZf77JaGeqZ54sJPHVlBZ4iNPLRiiNXITLg9BqJNP6UbAALGoqON4AyLAuz6NrQoRb0Nx3anofh7z/HZSEts5irUh6TLwtanMmRLTbRsjVxHo7a53Y4DHvjrqfYdW1inGuBlbyNOoQjHnUs1HN3QuH8ZRhl3GEsIGdso9ZIqVutbvWHcUBiM68lI/i+Y8J/UrSw7y8URC5agDJ++0YibNZ9z3Jc+xScT33mQbKpboGR+FMgxfmY+2tzSyJQe+OTOtXoWi+AsYCYTzYlOjM5AHa49HmQ5egn0nn1529LUL0QRblK0NZAhuESLRZiUxwBO5Xp0FGx+rl/S+GMc4gD9wrP1kC2o9IdSeugM+2peOp5tXlIXAQg6vZqUrX4KM0TMnByxb9KYIF9Dc/ypqdwPAYVyHm6I6H0q9tCmiCa7uWlGGwVa6AzwIG3VAqs5A6phM8D5T33nKFP69ItRJ+br25N5onEcSdTbnCxbIhhLJTwBGX0gsuPBHI74njAXkcSHOcLgSRb+6kzpW1IXpHpoivpO8VWxe6Y8yw1koh2MZ8JTj6zr2P1fgAzyXn0jCGAKBhuMjulr2KPE0yU/6lgNWltCpRulJqY6xp9v+6VC7xYxIYMIjVD8jEKt7n+4/mVYrlaR+5OO4s6rz+Xm5CbUqutRzXJ+IUtcufzrBBRVG+kVj3G7Rl+99XMDA877yiGfNBvdXBSo04w8CMl6427xn1HxzHYnvRujS0YLRq/2DWtBvVn3zy+Sf2TKRYC67UXsbQ6XwltkmCJgHJ0ui94aXcQJUNdgiznA/iPIchC35tDlXnCPhkpJ4fme8QnAJcJpOvBDonq85xymXq05NLR3quZKi7J3Z/bNfOcD9q24zS6hSnAqRQ5Gq3SeuXfYQDOu8UYM7PsSuq49607GjhEC043ixCh3o8zcwJvDtcTLmBoe5+ArNxZLyS/OFSt297Fzz49ci+VWSScJJBc40q8g9goPkLnW4GIc33J9gu4gcDax5uMDEzuDjeWSQAydz2KL7zkfZtSbK9onPNkmGQaVVgpArxfrTBcZrgbOE1VbQw4ATFlGMf1U5iditPhMOMfVjc1A/5rpmIGTO/jYEyyuRxpbRktsJVt7+9p7VfvCm+CNP6KMpZlP7FPHYiCq7AyfOtYvtaZqKNuhOEBVqSfF7RZqvCM7p5+rQ1EH6EKqkebik8vq50s/RyvEP0yxf70FDp0S5v5b4MqDCD4V2MfkLTDFek/B6lnyFRIvyODUd0tC0zJz4GdJe5Dcyqh9Pws7Ct9Z+emmeSiaiqQw/UivR1PE3HzC7ea0F3c8f3Am7LWdanqrP3JV0NMyy1x4rIPZ7oopoNcUWp3RJ+bQHFJCSywsHYpjpMmfikiZNg/rUYaqmy8pHmI4gfUkS8uAuLMUkPQEbf30eAzYOYxl5KylQLY1f0VdU8Y9k6FEhGrFed5uxBLx6ReGkGyLTAP+XnbBai9HPTiR25YkXMXN8oPvpqo3FmSKxDtaVk9tiyqNpg7Ci4N2icjFzkevxDPhqPUosAFhEbYZ1rcWOUzGDoHujC5ulnONSRQ/dGTyIYOrioXwKpUhN0Vbt1pAcHUFsUBZKKrXOZy+xGRmPmkx6WNDgA7z9KL1LudML/HCX1qMX7CLkryGeaOffHC4OOyPXb35wbSj8fth+6bV1E8C1dpHKQSJGpw5Qt3phMtRttW8dgYrtBEDKElpEdLOtGbfU1Xtmeive0NRiijjiV7nSHNYGs4yfe7X2i8gBRUQtXjAekizrHEgQ2zvoY2PS7QXr3mRzUI0nkRvEHeb7dr5sitxrdF0Wh43YwhE486L89+qnHqASH5VrFBz4+QKeSsZHepSRM1DClKhyDTaXM0aZjbVBCwNl7EI4zIu2rqdMVKM3l/N5zlHLBDldrmKKQ9pU/1XI73Kdq/LTG7DblPiINfbtUJRvkJLQuFJ6igq9rYHcG1HyXPOErq5VnLo9WzTdqtj6YtcUhYd55wp4EDIYaD7/RhhQ/KX3Df7tw6Xh+GOVuN+MeEw8R63dD0hwWSkD1EKy/fbBPSwN13CzE6WQVZuhgo3ZlNoiNuoAgaWDvy+uur97umpNmTujp5PvqNErrOtvRozqQOqjiBBrvQ3/3nu9PxnsWeIJ4+CerxwYVkRUZWoib3eA8qkWyJZnNMmpt3l3SlKmyvHNWhWOfMySEnkLMhA+Zq9wUYprEODIczC9vXTHvmZNS/0KH2yYjYiAli6DcEBUjDvh/EB14fLpEemVk1xy50mKR7JYN5VtaCRReBiDLeU8cJ4K6Yaktm7zOrXpbv8C8nSKl9fDgD8aYng7+nMV2jtWD6zYZY0WmValzvFGDqYMRrQy6s8F/xuxas+EDF1VbEB6diivTrEQlFsPOb3Pb11F8iQzkeR4Y1CkGcwZIytvof9BD5f5eGAqwCGG6CyS0K1Ap5beL+WIG6XbUVU3GFqAT2EzzWLbx87RuDiSx1za8PhzHwESYPHfBbBaAAzENHEI6+QL/0DKzEWSpnVj3lZZlWtYtBuvtScq9uR4DtDzfujLAYpSdUbLmsDKNf+GokaoL2S0914NdTvtA8J0hp6tDzeLOZj+Js7wf1UenHrwzZNT1vIERIYuQQbsXT2HADaAkrMu8qMh88JxM+ZOjQOZ/V7y+B4d2M2a4MLr2Uc6uICUmVp6YIRkYoRVOsyC3Ll7fQgvMGnVBCmjZZCJDosbdZ9o5xE66/HMR+7N3zki2FPl7lo80Imsb/zxp0uZWY2yJaY/Q6oOcB2b6lftcBFSFmrkAQgXSzxkigNg1nyRaAKCqk7Jup7fHNrZeBJ7Emy8FDDjEHuFAAAXaE2jtPKzIqnHpOxq26ikC4C0f3mWoW4IxjD+H1xE+9RjrAHDoTeBRYwvf0jBiQUtJlM672w5AmjXvrknRpN+hIbHnbS9RauLzlrE5KJbx0XBnH8wgs/uh5p68CK55WiUM86rnED/tOcDvqGBf8x9vJbNzIjmMmsYTi7pmcSLyZpKS8J4oQduSL/nW1RNfDPsyMsib+yZGG0eRi1gFGmy4Cr49q6SLLpTV7h8CRV38922uksSL4CFi9/m2Kxo0K1P+CilOgSjdLw7IPiR9WxlaKYmCKlqNQGGeRWErlyJ+46Hoa+OdsCGJaOeKxOnyPoWUco6elvW1pThy2QWGEiM5/OkbGfnqGwOaFTvvHtumeWYl2tyaS9L84AkNb837TtTyayjuKKFnKjEnKgnVj4tv86eO6Xqaa0EKxCK1q44AmYKmJubjVG6og7Hr7XhT71t2aK/XPSUk90nX8Irw4SPJQyOwcCgHyijf4v1Pz6GoQk6hJtuFkfPFGDAqExvqvKOcP1+CoC3xG4VJjuVywx6faVykr2+IGB1FljjWWisnGP3EvUKhYNlIK1jNFkm8Jbt7llH8cYL9LyGc0tzeKonuGtg081ma+uRXD9hApF2GG6q5M1NwzezEGARUFLxX9NyjPntUPRJycKFgn2QnYmBr/bH/0IdHBgnYcMylNNCNz7iZhCzngT0+nYfT2p50ds12qkO+qlWvZlxWJRai9wpN1C7qXT2SVSqdGhHFRISnFgixkWc8tVMuYAjK2SSghFbkxjbUChz4ux4X8Lt6Ya700Xcud+hDQLpn4N23wBeNfl29zrMclb2gdJQcRsG9R/05EX5ch9DzZDMNXmDJwxjQNNfIIcaguKD91Dk1pBh4a8dZeUNTpQhtJzJkdCqRNi0DhyqSuFP+sxoNR3xWzom5aF8gt65X13CPN8oGhTBfD1s2cDUPzmsl9JMk3ev0710moCLAXEKlpDCZEN+hJMcYlyu5Nw1gbj9zT0pg7COM/LztZX1L2cIYC/2MUZwIuaFmLooUoMTsbNEvKohCEDGQEKDmv95ASoIJRudjjjzX7GQXRhtLUj0MgdaJaq/fviz1vadQYMohmQIA65O21qHW44QjPzoYrfeVv/9WhnICw3NxOGAs3OS3a2NSL44ka9nsZK6ARY03BjFnozidZv5cDTsvuKwhgvtb/pOCFCb9Tbmioz1+5THQk9XsoFDbpQApm00xaw/Ew3MT/SkpwT3bZNMbKb7QRnfdufr1/Oj9QGocTS1Os+tF6vwyLzNs3wi/Sfv8uMCia1171bSW4nunU/e2c97RRYUzuq7o/DhBPPt3z1K44F87yu9ogARVjlv+RQrfECF4ZZeA6af1vbhoJtXP2WEQ6Zu8L7aC/vfMB0mxbRXKeJlzlPaRLJo696TF9kt5Ndug1AHMS6nH4b0hm0Zca6EP4Xy6AtlhBqCgRNZtd7WRoN8/H6NCttOj8gclQ1YlUrowwpSmJMgkBQ1Mg77j9eOIM0qhbdqr9OYqvKmJDpO4e+aDMga7b7dHgu670/RkCvLXDgpXFYwvYTBnWLbXR4my9hModyclhuzv9DZin2sOcjNOhb09dvDbcM3C6K0JAZq+nOaKDunoGgNXEeXsjrUPYuXLXMwLkTlCXALUoWXTvyjflRM5jHVa/A7o/PSw+M7HdcS7LIwD+M2/K3P8RAuuwRrmjL9Jep6tHyQFRnB7tG1GX3WshzwTHE/lkny6SKAk8OD2tAwXQ0avknwL+7Gk72BjqGr6JJ2j7J7wYYT+tHho1EeI+dtxo4TBPV6iubMuelfUnb9so0q1p9q++ufx8yBPfpjRE8mdZ8PYclS4p85rHmp282AQNuH8SEr/4YxVdZCRXnksME5SOnBabS812hc3d0banKOPvjfy0cu0b011D1kkcSChOWsYtmBlSqZcMTqiSbQOxhUU5n5z4bdZ0sma6crxtVTIrDvm04Ok9bmB37VIVmKTvqz1V78WujlugMK3DtivUmAOybvTrze8xP6KDSI5JUo3LN5FDKEIrxwDAIoaX/4vBQSGBNcg1ie/lFrb6WOrcoIH/MxH2vgYmnqQC4IRfKINy7rdTQw7+aA+WFoKKFKcSuRdYSTPunR//pZKDGA+5vjk8P3DKNPcCVhr2b6D3PUkSOnOP0spM+Aj4u3xwcWJfZSNvfvJBXkFtey19P+erRXn1+8dA+levJdr/AuyFFm27R6c4tMYh3KCWOm84FTInb45B/hx4Ov9ZvlcjWOuJRpLf9D6mfuXEU3EattCUuF/ltyatitPof5t09Y6koWsh0BBzCaj7RnNIudSP9l0fkRsJ26tnHRtB/aQPGtIiu9QAhn7ECFykRsMTWvP95UOaJNbN6WdEB5vNx2pZuod3dKtcpCXmiFIbp22XKuEhZgO+ZIquZ48ddgEEejKi6GsnlDvIraE7yDRTXla7d4lbstsuRO4KMWDTpSpmdpj0KuwQBwqspRdT1IBl9E/HcXcB8ozuWM4MlPEFgiitZIdcLCHFw6FUOhJhHLafoCHwKzBWHXR/26tgCIEimnCOUT8y4elS3pTjloiLgmVhq3d8NF2Q2RF58lmtMuUqxLzImX/5TGgFMsqlGuUEQmOP0OH1cwa5RrMD5bi7HMJEa+qqolmoHe3gFMFsMHmTADlX+gDwo3SeMtnZ9UapX/hoMfV9XkxNtdUrDeU2tsioHz/UoscJ+MndhXDA2XAfMtoXTpcws3aGU53+oCo29c3bj7aZIF7NkYE6PV5AgCIAC16rfnC/igwfPok+o5VPi5BKKS2cCBvcVCw3U7RxKVLDYt/kCA/ot3hdJJ9WVihi6dFpCVE4txLxb3rrMIv+wVVjYl4IXexWdrGUCZtHv/ZJu5NeP0wwGHVk8By0xO8+vcQ1b/uAkP8vbrA41kxAj9RzR0/euck72347hVAFDGpttsGFsj4TUM9zxWHbmE8Dh5S2sO9ruTWLTBpUUy11Y7NvLUf8qGAafyReHkXS63YSL/DzdSTa7ed5oCybwoeorSR9epmmXyg2q4oEh00neIbWKa7afnkd3vo23Y3EpYrnohSnD4Q/FY7QMrZbgTXQ7w887A6JhKtd0ukcKSDG0TW1+XLa+JrCVdgT1T8KrNoABptyhc2RJyuTd63qN0G4cFtVqP34IX0KrVy4y1GXPfdyGV8aft8y2dl/wYKJNfNSD0XMFQoiIBfjlZylGTtg+xwzv6z2uT18CfWWA1Ti9IeZ4zFNXQod0S9t5ePPLYhPYdaSuNdJ/wzL2XaxAIqGYhr7J8EWiJyHT1fAFVrsBTdbEdCj3e5BrrVPZmfaXEknRjANomfCB/z5bihinakbBVInG4nyZCvNrndPnretnzsHHjljKVil9tbugdRqQKb/XJ5aPjTMNrsVikfNYX1Kzaw1XZZv/3U5oJubQDcybZb3Z1OY1qCUsBtdyuLFqMK1Rd/SKNsgxMWbSj4s4vsg7yW9fV6U0ICrVNBCSfUwnTNLDgVFPvKWHZU/vM1XOrES29yfsQ5j+Krr5loVV+wfBHH/4s9Rh+/9PYweadq8d1B49qKW8GVGuus6/B2s9bdiX+wUXEcv4TUjNe73NwsIThAQ22PVsRBAYa3objwoA/1R4iS/RFEkAayaOHFBQLS7vMP94t19rto3OiVmL+ud+GNU5Q7oKf/yZQgWXLyYHeTMzFuKZGSNHAYH1miG6wXtby9Hrkc8Ga8h/tqDJTnPuRkF0LZGDUGO/0WsxA448gpoZCVA8c2EauQSd5v/mircptsPVgsi4CCJeiC10ERToZrq2NZcbTyE+C5oWXMGoyLNxhLbAgGkC7IHK1bdvTAs/j1ix5u3O0kWe/WObk76grPTW9WFnZAt0viK79uCzzrOnwg503PbVp8orQSprknxD/Ah0WLbfxd2s9QUGVmp6r4RfGCINJ2UvrAaBn2ATagmIl8HVgS6wzYq0NmELnrtTr5mgkuN75r0LHneW4MjM0YYBy3fLMF8tlhlHM7GdH+7y2PhoIJU8X0SIX3DrHtVl3429OIGiem2Ky75ySGt/8rglVOpx9mO6DxUr/wFTZaCwZRO334ot711lrQjNOaWWED9bH6OBWYj1ae70HiqZ4zw9AooPsw0XIHZIpifmBTKmX46bm8yYIPDG8V3AGQxsM7A8t46x4DxY8gqgeh4crVkDpfQk05f09MEbWXwOnBtPT2jzHM/BSfa1Auc5snu6HBykuJCnWtzZhRkjJFcH4OJMgQltx1iPO+Vt7O/vand6y4V+nOjuRiPrxBtwZdR0vLdtfFUoCEWBfqTIztn01LqGGwebT1+2QdNSNessEd5zQnNogK7d/YMceLqjIlAE/SCSBJDjbgTsssvQXdiLMbPdO6L4DJ/uYeTtZrXbixFyRMvLq1osz+Cu4z7dpjL/u0lWk1drXTPVcUsb2NkTSEsdpuLN8PCcuVEbqNKCYKyLAx5o9y9gZtB00/HhYLBWR/uSRLRhchUii9BbTQMvC9Xt9hmr0V6oe2kEuZBOYcee2Vwvdmj9VOmGJ6noSHET1VsD8ThB/P7nDxpYyZwYfkfHgbs+cae7d6d11Hc7CZX2geB2bmvFvnD+ObVZR60I78B6ZV53HDN1rh2aql9G2xETMYMXhj5ImUtho7bAxRivAHkwUwRxsczehTfB67TeFgf0AnBSeAbT6fBkM31QnZI7vj4L3CeU00X8tcUpgEKtjpnKP8Xdx7FTiq7d2wF5A0EJrBdngghRk0sBflh7Rx6ANX874dZohlfPmTNYWnowPHC+txxOFbYM7qr5Ea6uXAsUpcsrbjIhujmfybkBle7JZkF0aTdqWfBLaBOoZLriJnuoV4kCQxIZOJeafSmQQnVcpPhDaEdQbVmu/zavbvlccHCKwMtjrnsp+r5Cd8Tt5TIi8eOZAEFMV7zsQUzASq+lqIJTuF702IO7ESZAK4VoduRKFqKkdlp1Mru/gvx1smxoD2ys1/giis3YDiUUUoIX61L2zDKc4TUC/n9ng8OsJHuQ8D3kHlRaXWBIobEuVT/fLyPmqLLzjHSyP3QAVZLTodKBdrztwt22KjVX+w2MT9n6ybY60QQPrpMI4fFt6bR8AzZCPXJEKxaoADSAw+IJKampD2uhKYUo0PBt34HrOr3akel3euuYmhu4Py/2cbw/WoxLYJeMN82h572AgJ7V8NIwTSTKvEtXYu/YW9Ti0/WO5HU4wqb7NdggtyYCu/DUmJ3XvS6REmLcNYmqACeNSMmwIKPisq4AwMFIqyZ8sCzmhhlo0rmvQsMJR4BwUjMZekDwOUfSNqAOqusXne81+BFMKDlM7n5MAAAAVisA/WtHCFQLStn/7uRy20UpZjfb1u7q7Hmg6aNBISgF0eKyfV6OE7poCqVdXw/W98b43Jk7mYogPbWeKRXadbybEffaSNlXxfUmYWnrSPpgSjg/ty/A9l8UQ/z3v84jvoHLakZNM0KD2vCkhmGdP+K3RIRinIw4vYSOo4pJ/c7jLJmRP+AqcEdlEwWlFVdmliSgHPW68B7IlLhYGAAAA;clipPath=inset(10.32% 40% 8.73% 45.33%);rotation=-90;fillColor=#cce5ff;strokeColor=#36393d;" vertex="1" parent="1">
          <mxGeometry x="80" y="344.73" width="86.51" height="200.54" as="geometry" />
        </mxCell>
        <mxCell id="4u7W2L5MvZnfVgIXWP3j-6" style="edgeStyle=orthogonalEdgeStyle;rounded=0;orthogonalLoop=1;jettySize=auto;html=1;fillColor=#cce5ff;strokeColor=#36393d;" edge="1" parent="1" source="4u7W2L5MvZnfVgIXWP3j-4" target="4u7W2L5MvZnfVgIXWP3j-7">
          <mxGeometry relative="1" as="geometry">
            <mxPoint x="170" y="200" as="targetPoint" />
          </mxGeometry>
        </mxCell>
        <mxCell id="4u7W2L5MvZnfVgIXWP3j-4" value="" style="shape=actor;whiteSpace=wrap;html=1;fillColor=#cdeb8b;strokeColor=#36393d;" vertex="1" parent="1">
          <mxGeometry x="30" y="170" width="40" height="80" as="geometry" />
        </mxCell>
        <mxCell id="4u7W2L5MvZnfVgIXWP3j-10" style="edgeStyle=orthogonalEdgeStyle;rounded=0;orthogonalLoop=1;jettySize=auto;html=1;fillColor=#cce5ff;strokeColor=#36393d;" edge="1" parent="1" source="4u7W2L5MvZnfVgIXWP3j-7">
          <mxGeometry relative="1" as="geometry">
            <mxPoint x="300" y="210" as="targetPoint" />
          </mxGeometry>
        </mxCell>
        <mxCell id="4u7W2L5MvZnfVgIXWP3j-7" value="User Input" style="whiteSpace=wrap;html=1;aspect=fixed;fillColor=#cce5ff;strokeColor=#36393d;" vertex="1" parent="1">
          <mxGeometry x="140" y="160" width="100" height="100" as="geometry" />
        </mxCell>
        <mxCell id="4u7W2L5MvZnfVgIXWP3j-16" style="edgeStyle=orthogonalEdgeStyle;rounded=0;orthogonalLoop=1;jettySize=auto;html=1;fillColor=#cce5ff;strokeColor=#36393d;" edge="1" parent="1" source="4u7W2L5MvZnfVgIXWP3j-12">
          <mxGeometry relative="1" as="geometry">
            <mxPoint x="560" y="210" as="targetPoint" />
          </mxGeometry>
        </mxCell>
        <mxCell id="4u7W2L5MvZnfVgIXWP3j-12" value="Extract required Genre from the user Input" style="rounded=1;whiteSpace=wrap;html=1;fillColor=#cce5ff;strokeColor=#36393d;" vertex="1" parent="1">
          <mxGeometry x="300" y="160" width="210" height="100" as="geometry" />
        </mxCell>
        <mxCell id="4u7W2L5MvZnfVgIXWP3j-22" style="edgeStyle=orthogonalEdgeStyle;rounded=0;orthogonalLoop=1;jettySize=auto;html=1;fillColor=#cce5ff;strokeColor=#36393d;" edge="1" parent="1" source="4u7W2L5MvZnfVgIXWP3j-18">
          <mxGeometry relative="1" as="geometry">
            <mxPoint x="655" y="380" as="targetPoint" />
          </mxGeometry>
        </mxCell>
        <mxCell id="4u7W2L5MvZnfVgIXWP3j-18" value="Add Genre to the input prompt of the model&amp;nbsp;" style="shape=process;whiteSpace=wrap;html=1;backgroundOutline=1;fillColor=#cce5ff;strokeColor=#36393d;" vertex="1" parent="1">
          <mxGeometry x="560" y="150" width="190" height="110" as="geometry" />
        </mxCell>
        <mxCell id="4u7W2L5MvZnfVgIXWP3j-23" value="Cohere Generate API Model" style="shape=cube;whiteSpace=wrap;html=1;boundedLbl=1;backgroundOutline=1;darkOpacity=0.05;darkOpacity2=0.1;fillColor=#cce5ff;strokeColor=#36393d;" vertex="1" parent="1">
          <mxGeometry x="570" y="371.25" width="170" height="130" as="geometry" />
        </mxCell>
        <mxCell id="4u7W2L5MvZnfVgIXWP3j-56" style="edgeStyle=orthogonalEdgeStyle;rounded=0;orthogonalLoop=1;jettySize=auto;html=1;entryX=0;entryY=0.567;entryDx=0;entryDy=0;entryPerimeter=0;" edge="1" parent="1" source="4u7W2L5MvZnfVgIXWP3j-27" target="4u7W2L5MvZnfVgIXWP3j-23">
          <mxGeometry relative="1" as="geometry" />
        </mxCell>
        <mxCell id="4u7W2L5MvZnfVgIXWP3j-57" style="edgeStyle=orthogonalEdgeStyle;rounded=0;orthogonalLoop=1;jettySize=auto;html=1;entryX=0.5;entryY=1;entryDx=0;entryDy=0;" edge="1" parent="1" source="4u7W2L5MvZnfVgIXWP3j-27" target="4u7W2L5MvZnfVgIXWP3j-3">
          <mxGeometry relative="1" as="geometry" />
        </mxCell>
        <mxCell id="4u7W2L5MvZnfVgIXWP3j-27" value="Generate Music Notes for the given genre using Cohere generate large model" style="shape=hexagon;perimeter=hexagonPerimeter2;whiteSpace=wrap;html=1;fixedSize=1;fillColor=#cce5ff;strokeColor=#36393d;" vertex="1" parent="1">
          <mxGeometry x="310" y="378.75" width="190" height="132.5" as="geometry" />
        </mxCell>
        <mxCell id="4u7W2L5MvZnfVgIXWP3j-47" style="edgeStyle=orthogonalEdgeStyle;rounded=0;orthogonalLoop=1;jettySize=auto;html=1;entryX=0;entryY=0.5;entryDx=0;entryDy=0;" edge="1" parent="1" source="4u7W2L5MvZnfVgIXWP3j-41" target="4u7W2L5MvZnfVgIXWP3j-46">
          <mxGeometry relative="1" as="geometry" />
        </mxCell>
        <mxCell id="4u7W2L5MvZnfVgIXWP3j-41" value="Python code to convert Generated music notes to&amp;nbsp; waveform and generates music" style="shape=process;whiteSpace=wrap;html=1;backgroundOutline=1;fillColor=#cce5ff;strokeColor=#36393d;" vertex="1" parent="1">
          <mxGeometry x="33.26" y="604" width="180" height="90" as="geometry" />
        </mxCell>
        <mxCell id="4u7W2L5MvZnfVgIXWP3j-49" style="edgeStyle=orthogonalEdgeStyle;rounded=0;orthogonalLoop=1;jettySize=auto;html=1;" edge="1" parent="1" source="4u7W2L5MvZnfVgIXWP3j-46">
          <mxGeometry relative="1" as="geometry">
            <mxPoint x="530" y="649" as="targetPoint" />
          </mxGeometry>
        </mxCell>
        <mxCell id="4u7W2L5MvZnfVgIXWP3j-46" value="Streamlit front end deployment" style="shape=ext;double=1;whiteSpace=wrap;html=1;aspect=fixed;fillColor=#cce5ff;strokeColor=#36393d;" vertex="1" parent="1">
          <mxGeometry x="340" y="589" width="120" height="120" as="geometry" />
        </mxCell>
        <mxCell id="4u7W2L5MvZnfVgIXWP3j-52" value="" style="shape=actor;whiteSpace=wrap;html=1;fillColor=#cdeb8b;strokeColor=#36393d;" vertex="1" parent="1">
          <mxGeometry x="530" y="600" width="90" height="86" as="geometry" />
        </mxCell>
      </root>
    </mxGraphModel>
  </diagram>
</mxfile>
